<?xml version="1.0" encoding="utf-8"?>
<!-- Generator: Adobe Illustrator 18.1.1, SVG Export Plug-In . SVG Version: 6.00 Build 0)  -->
<!DOCTYPE svg PUBLIC "-//W3C//DTD SVG 1.1//EN" "http://www.w3.org/Graphics/SVG/1.1/DTD/svg11.dtd">
<svg version="1.1" id="Layer_1" xmlns="http://www.w3.org/2000/svg" xmlns:xlink="http://www.w3.org/1999/xlink" x="0px" y="0px"
	 width="133.7px" height="133.1px" viewBox="-112 114.9 133.7 133.1" enable-background="new -112 114.9 133.7 133.1"
	 xml:space="preserve">
<g id="Find_Us_FB_1_">
	<path fill="#365BA9" d="M11.2,118.1h-112.7c-3.9,0-7,3.1-7,7v112.7c0,3.9,3.1,7,7,7H11.2c3.9,0,7-3.1,7-7V125.1
		C18.2,121.2,15,118.1,11.2,118.1"/>
	<path fill="#FFFFFF" d="M-4.6,195.7l2.4-19.1h-18.9v-12.2c0-5.5,1.5-9.3,9.5-9.3h10.1V138c-1.7-0.3-7.8-0.7-14.8-0.7
		c-14.6,0-24.6,8.9-24.6,25.3v14.1h-16.5v19.1h16.5v49.1h19.7v-49.1L-4.6,195.7L-4.6,195.7z"/>
</g>
</svg>
