<?xml version="1.0" encoding="utf-8"?>
<!-- Generator: Adobe Illustrator 18.1.1, SVG Export Plug-In . SVG Version: 6.00 Build 0)  -->
<!DOCTYPE svg PUBLIC "-//W3C//DTD SVG 1.1//EN" "http://www.w3.org/Graphics/SVG/1.1/DTD/svg11.dtd">
<svg version="1.1" id="Layer_1" xmlns="http://www.w3.org/2000/svg" xmlns:xlink="http://www.w3.org/1999/xlink" x="0px" y="0px"
	 width="133.7px" height="133.1px" viewBox="-112 114.9 133.7 133.1" enable-background="new -112 114.9 133.7 133.1"
	 xml:space="preserve">
<g id="Layer_2">
	<rect x="-101.7" y="125.9" fill="#FFFFFF" width="110.7" height="110.1"/>
</g>
<g>
	<path fill="#345AA9" d="M18.5,136.6v98.7c0,4.9-4,8.9-8.9,8.9H-99.9c-4.9,0-8.9-4-8.9-8.9v-98.7V127c0-4.9,4-8.9,8.9-8.9h22.4h32.4
		h31.9H9.6c4.9,0,8.9,4,8.9,8.9L18.5,136.6L18.5,136.6z"/>
	<polygon id="PLUS" fill="#FFFFFF" points="16.6,147.5 -3.5,147.5 -3.5,127.4 -13.3,127.4 -13.3,147.5 -33.4,147.5 -33.4,157.3 
		-13.3,157.3 -13.3,177.4 -3.5,177.4 -3.5,157.3 16.6,157.3 	"/>
	<path fill="#FFFFFF" d="M-105.7,226.6c1.8-1.5,3.6-2.6,5.4-3.5c1.8-0.7,3.1-1.3,4.1-1.7c4.1-1.3,8.2-2.2,12.2-2.7
		c4-0.4,6.5-0.5,7.5-0.4c1.7,0,3.1,0.1,4.3,0.2c7.1,5,12.4,9.2,15.8,12.6c3.2,3.6,4.8,7.8,4.8,12.7c0,0.3,0,0.6,0,0.9h11.1
		c0.8-2.7,1.2-5.5,1.2-8.4c-0.1-6.6-1.6-11.8-4.5-15.9c-3-4-6.6-7.6-10.6-10.9l-6.5-5.3c-0.9-0.9-1.9-2-2.9-3.3
		c-1.2-1.3-1.8-2.9-1.8-4.9c0-2.1,0.6-3.9,1.7-5.4c1-1.5,2-2.8,3.2-4c2-1.8,3.9-3.5,5.7-5.1c1.6-1.7,3.1-3.5,4.6-5.5
		c2.9-4.1,4.4-9.6,4.6-16.4c0-3.7-0.4-7-1.3-9.8c-1-2.8-2.2-5.2-3.5-7.3c-1.4-2.2-2.8-4-4.3-5.5c-1.5-1.4-2.8-2.5-4.1-3.3v0h11.8
		l11.8-6.9h-38.3c-5.1,0-10.5,0.6-16.4,1.8c-5.9,1.4-11.6,4.3-17,8.8c-0.5,0.5-1,1-1.5,1.5v46.7c5.2,4.9,12.3,7.4,21.3,7.5
		c1.9,0,4-0.1,6.2-0.4c-0.3,1-0.7,2.1-1.2,3.3c-0.5,1.1-0.7,2.5-0.7,4.2c0,2.8,0.6,5.2,1.9,7.2c1.1,2.1,2.3,4,3.7,5.8
		c-4.5,0.1-10.1,0.7-16.9,1.7c-4.9,0.9-9.7,2.3-14.3,4.4v10.6C-107.7,228.6-106.7,227.5-105.7,226.6z M-78.3,187.6
		c-4,0-7.5-1.2-10.6-3.6c-3.1-2.4-5.7-5.4-7.6-8.9c-4.1-7.5-6.1-14.7-6.1-21.6c-0.1-5.2,1.3-10,4.2-14.2c3.4-4.1,7.8-6.2,13-6.3
		c3.9,0.1,7.4,1.3,10.4,3.5c2.9,2.3,5.3,5.3,7.1,9c3.9,7.7,5.8,15.3,5.8,22.9c0,1.7-0.1,3.9-0.4,6.5c-0.4,2.6-1.5,5.1-3.1,7.5
		C-69.1,185.6-73.3,187.4-78.3,187.6z"/>
</g>
</svg>
