<?xml version="1.0" encoding="utf-8"?>
<!-- Generator: Adobe Illustrator 18.1.1, SVG Export Plug-In . SVG Version: 6.00 Build 0)  -->
<!DOCTYPE svg PUBLIC "-//W3C//DTD SVG 1.1//EN" "http://www.w3.org/Graphics/SVG/1.1/DTD/svg11.dtd">
<svg version="1.1" xmlns="http://www.w3.org/2000/svg" xmlns:xlink="http://www.w3.org/1999/xlink" x="0px" y="0px" width="133.7px"
	 height="133.1px" viewBox="0 0 133.7 133.1" style="enable-background:new 0 0 133.7 133.1;" xml:space="preserve">
<style type="text/css">
	.st0{fill:#FFFFFF;}
	.st1{fill:#345BA9;}
</style>
<g id="Layer_2">
	<rect x="10.3" y="11" class="st0" width="110.7" height="110.1"/>
</g>
<g id="Layer_1">
	<path class="st1" d="M115.2,3H18.4C10,3,3.3,9.7,3.3,18.1v96.9c0,8.3,6.8,15.1,15.1,15.1h96.8c8.3,0,15.1-6.7,15.1-15.1V18.1
		C130.3,9.7,123.5,3,115.2,3z M91.5,21c0-2,1.6-3.5,3.6-3.5h17.2c2,0,3.6,1.6,3.6,3.5v17.1c0,2-1.6,3.5-3.6,3.5H95
		c-2,0-3.6-1.6-3.6-3.5V21z M66.9,42.3c13.5,0,24.4,10.9,24.4,24.4C91.3,80.1,80.4,91,66.9,91c-13.5,0-24.4-10.9-24.4-24.4
		C42.5,53.2,53.4,42.3,66.9,42.3z M116.1,111.7c0,2-1.6,3.5-3.6,3.5H21.3c-2,0-3.6-1.6-3.6-3.5V56.5h11.9c-0.9,3.2-1.4,6.7-1.4,10.2
		c0,21.3,17.3,38.5,38.6,38.5c21.3,0,38.6-17.3,38.6-38.5c0-3.5-0.5-6.9-1.4-10.2h11.9V111.7z"/>
	<g>
	</g>
	<g>
	</g>
	<g>
	</g>
	<g>
	</g>
	<g>
	</g>
	<g>
	</g>
</g>
</svg>
