<?xml version="1.0" encoding="utf-8"?>
<!-- Generator: Adobe Illustrator 18.1.1, SVG Export Plug-In . SVG Version: 6.00 Build 0)  -->
<!DOCTYPE svg PUBLIC "-//W3C//DTD SVG 1.1//EN" "http://www.w3.org/Graphics/SVG/1.1/DTD/svg11.dtd">
<svg version="1.1" id="Layer_1" xmlns="http://www.w3.org/2000/svg" xmlns:xlink="http://www.w3.org/1999/xlink" x="0px" y="0px"
	 width="133.7px" height="133.1px" viewBox="-112 114.9 133.7 133.1" enable-background="new -112 114.9 133.7 133.1"
	 xml:space="preserve">
<rect x="-108.5" y="118.1" fill="#365BA9" width="126.7" height="126.7"/>
<path fill="#FFFFFF" d="M-2.9,155.3c-3.1,1.4-6.5,2.3-10,2.7c3.6-2.2,6.3-5.5,7.6-9.6c-3.3,2-7.1,3.4-11,4.2
	c-3.2-3.4-7.6-5.5-12.7-5.5c-9.6,0-17.3,7.8-17.3,17.3c0,1.4,0.2,2.7,0.5,4c-14.4-0.7-27.1-7.6-35.7-18.1c-1.5,2.6-2.4,5.5-2.4,8.7
	c0,6,3,11.3,7.7,14.4c-2.8-0.1-5.5-0.9-7.9-2.2c0,0.1,0,0.1,0,0.2c0,8.4,6,15.4,13.9,17c-1.4,0.4-3,0.6-4.6,0.6
	c-1.1,0-2.2-0.1-3.3-0.3c2.2,6.9,8.6,11.9,16.2,12c-5.9,4.6-13.4,7.4-21.5,7.4c-1.4,0-2.8-0.1-4.1-0.3c7.7,4.9,16.8,7.8,26.6,7.8
	c31.9,0,49.3-26.4,49.3-49.3c0-0.8,0-1.5,0-2.2C-8.2,161.8-5.3,158.7-2.9,155.3z"/>
</svg>
